<?xml version="1.0" encoding="utf-8"?>
<!-- Generator: Adobe Illustrator 25.2.1, SVG Export Plug-In . SVG Version: 6.00 Build 0)  -->
<svg version="1.1" id="Layer_1" xmlns="http://www.w3.org/2000/svg" xmlns:xlink="http://www.w3.org/1999/xlink" x="0px" y="0px"
	 viewBox="0 0 339.01 148.99" style="enable-background:new 0 0 339.01 148.99;" xml:space="preserve">
<style type="text/css">
	.st0{fill:none;}
	.st1{fill:#FFFFFF;}
</style>
<g>
	<g>
		<path class="st0" d="M339.01,148.99c-112.93,0-225.86,0-338.98,0c0-3.26,0-6.53,0-9.8c0-45.28,0-90.56-0.01-135.84
			c0-1.91-0.39-3.36,2.75-3.35c112.08,0.12,224.16,0.1,336.24,0.1C339.01,49.77,339.01,99.38,339.01,148.99z M69.28,78.03
			c0,3.07-0.33,5.58,0.12,7.93c0.3,1.57,1.46,3.85,2.66,4.16c1.54,0.39,3.7-0.57,5.23-1.52c1.34-0.83,2.21-2.44,3.23-3.75
			c1.32-1.7,2.63-3.41,3.83-5.19c1.36-2.03,2.2-1.59,3.66,0.12c3.38,3.96,6.79,4.19,10.89,1.16c1.19-0.88,2.34-1.79,3.74-2.86
			c0.08,0.82,0.31,1.38,0.14,1.73c-0.93,1.87-0.87,3.51,0.78,4.95c1.87,1.63,3.82,1.06,5.51-0.09c2.86-1.93,5.59-4.07,8.32-6.19
			c2.07-1.61,4.05-3.32,6.44-5.29c0.16,4.05,0.92,7.24,4.64,8.62c3.66,1.35,6.46-0.33,8.98-2.76c2.15-2.07,4.22-4.22,6.42-6.22
			c0.52-0.48,1.44-0.52,2.17-0.77c0.03,0.72,0.22,1.48,0.06,2.15c-0.8,3.23-1.77,6.41-2.5,9.65c-0.17,0.78,0.1,2.13,0.65,2.49
			c0.65,0.42,2.06,0.41,2.71-0.04c1.35-0.92,2.45-2.22,3.61-3.41c4.17-4.28,8.29-8.6,12.5-12.83c0.47-0.48,1.45-0.46,2.19-0.67
			c0.13,0.77,0.52,1.59,0.36,2.29c-0.9,4.04-2.06,8.03-2.85,12.09c-0.24,1.25,0.42,2.67,0.66,4.01c1.29-0.47,2.91-0.6,3.79-1.48
			c2.34-2.34,4.25-5.11,6.54-7.51c5.25-5.48,7.54-6.07,11.87-0.43c0.4,0.53,0.83,1.05,1.32,1.5c3.29,3.04,6.31,3.19,9.71,0.23
			c1.87-1.63,3.64-3.44,5.18-5.38c1.03-1.3,1.6-2.97,2.37-4.48c-1.58,0.63-3.3,1.02-4.71,1.91c-6.39,4.04-6.36,4.09-10.12-2.65
			c-0.08-0.14-0.14-0.3-0.22-0.45c-2.69-4.73-5.43-5.34-9.61-1.97c-2.15,1.73-4.12,3.7-6.52,5.89c0.52-4.31,1.11-8.08,1.39-11.86
			c0.26-3.45-0.73-4.25-4.08-3.25c-1.48,0.44-2.9,1.49-4.04,2.58c-3.6,3.42-7.06,6.99-10.58,10.5c-0.29-2.86,0.26-5.14,0.3-7.43
			c0.02-1.48-0.7-2.96-1.09-4.45c-1.52,0.48-3.33,0.59-4.5,1.51c-2.6,2.05-4.92,4.47-7.29,6.81c-2.25,2.22-4.28,4.67-6.63,6.77
			c-2.28,2.03-4.34,1.3-5.2-1.6c-0.23-0.78-0.15-1.65-0.29-2.46c-0.33-1.98,1.35-5-1.46-5.6c-1.56-0.33-3.76,1.51-5.41,2.72
			c-2.41,1.76-4.54,3.9-6.88,5.76c-1.82,1.44-3.78,2.69-5.68,4.03c-0.02-1.67,0.43-2.74,1.2-3.5c5.82-5.69,11.7-11.31,17.56-16.96
			c1.24-1.19,3.56-2.17,2.01-4.3c-1.33-1.84-3.4-0.94-5-0.03c-2.01,1.15-3.99,2.43-5.77,3.9c-6.79,5.6-13.43,11.37-20.25,16.93
			c-4.79,3.91-7.09,3.05-8.92-3.05c-0.19-0.63-0.24-1.31-0.41-1.95c-0.82-3.08-2.44-3.69-4.9-1.61c-1.1,0.93-1.9,2.29-2.63,3.57
			c-1.89,3.32-3.62,6.73-5.53,10.03c-0.49,0.84-1.41,1.42-2.47,2.44c-0.29-8.5,0.59-11.17,4.98-16.69
			c3.31-4.16,6.65-8.31,9.71-12.65c4.9-6.95,8.83-14.45,10.65-22.82c0.33-1.5-0.14-4.03-1.17-4.75c-1.13-0.79-3.57-0.51-5.02,0.18
			c-1.88,0.9-3.49,2.53-4.96,4.09c-9.46,10-15.64,21.9-19.07,35.1c-1.06,4.1-2.59,7.33-5.77,10.03c-2.16,1.84-4.46,3.76-5.23,7.88
			C63.81,81.07,66.18,79.75,69.28,78.03z M247.99,78.34c-0.32-0.21-0.63-0.43-0.95-0.64c0.19-1.24,0.31-2.5,0.58-3.73
			c0.54-2.43,1.31-4.82,1.66-7.28c0.14-0.97-0.34-2.67-1-2.96c-0.98-0.43-2.46-0.1-3.57,0.32c-0.86,0.33-1.56,1.22-2.21,1.97
			c-3.04,3.51-6.05,7.06-8.92,10.43c-2.92-4.04-4.97-7.01-7.17-9.86c-2.84-3.69-5.98-7.16-8.67-10.96
			c-4.63-6.54-1.06-15.08,7.29-16.98c-1.24,1.14-2.35,1.93-3.13,2.96c-0.49,0.65-0.49,1.68-0.71,2.54c0.75,0.08,1.73,0.51,2.21,0.19
			c4.25-2.88,8.64-5.63,12.43-9.03c1.08-0.97,0.98-4.19,0.31-5.95c-0.87-2.27-3.11-0.95-4.81-0.45c-7.52,2.18-14.2,6.08-19.58,11.56
			c-6.41,6.53-8.9,13.34-1.81,21.52c1.52,1.75,3.19,3.37,4.72,5.12c2.85,3.25,5.74,6.47,8.39,9.87c0.71,0.91,1.14,2.66,0.75,3.66
			c-0.69,1.76-2.11,3.23-3.22,4.82c-0.21-0.19-0.4-0.52-0.63-0.55c-1.14-0.14-2.46-0.62-3.4-0.22c-3.51,1.49-6.93,3.23-10.33,4.96
			c-1.63,0.83-3.83,1.96-2.89,3.98c0.69,1.49,2.76,2.52,4.43,3.3c0.92,0.43,2.36,0.17,3.41-0.2c8.98-3.23,15.45-10.05,22.55-15.96
			c1.55-1.29,2.97-2.75,5.01-4.66c0.5,3.15,0.98,5.25,1.13,7.37c0.16,2.18,1.36,3.04,3.26,2.76c1.41-0.21,2.97-0.69,4.05-1.57
			c2.7-2.19,5.15-4.69,7.73-7.04c1.33-1.22,2.71-2.39,4.06-3.58c-0.64,8.6-2.31,16.25-8.35,22.24c-2.22,2.2-3.93,4.94-5.72,7.53
			c-2.07,3-4.17,6.01-5.87,9.21c-1.06,1.99,0.21,3.46,2.31,2.7c1.96-0.71,4.03-1.84,5.35-3.39c3.23-3.78,6.49-7.66,8.94-11.96
			c4.18-7.32,9.33-13.7,15.68-19.18c4.41-3.8,8.79-7.64,13.21-11.43c1.19-1.02,2.47-1.95,3.71-2.92c0.34,0.16,0.69,0.32,1.03,0.49
			c-0.21,2.9-0.36,5.8-0.67,8.68c-0.13,1.19-0.51,1.83-2.25,1.45c-2.09-0.46-3.44,1.31-3.37,3.32c0.08,2.62,0.4,5.31,1.12,7.82
			c0.93,3.26,2.35,3.82,5.01,1.59c6.47-5.43,12.69-11.15,18.92-16.86c0.8-0.73,1.08-2.03,1.95-3.73
			c-7.06,1.61-10.05,7.77-15.21,10.14c1.41-6.72,2.78-13.17,4.1-19.63c0.4-1.97-0.04-4.01-2.03-4.56c-1.54-0.43-3.41,0.16-5.09,0.5
			c-0.55,0.11-0.98,0.86-1.46,1.32c-7.98,7.79-15.95,15.58-23.93,23.37c-0.24-1.42,0.08-2.48,0.41-3.54
			c1.37-4.44,2.82-8.86,4.05-13.34c0.27-0.98,0.08-2.81-0.5-3.12c-0.99-0.52-2.49-0.33-3.7-0.08c-0.72,0.15-1.37,0.91-1.95,1.49
			c-2.58,2.6-5.07,5.28-7.7,7.83C254,72.81,250.97,75.55,247.99,78.34z M60.06,84.08c-4.74,1.57-9.14,3.37-13.71,4.43
			c-4.28,0.99-10.25-2.43-12.09-6.28c-2.91-6.09-4.36-12.38-3.29-19.21c1.24-7.93,4.19-14.95,9.66-20.89
			c2.88-3.12,6.67-4.52,10.59-4.67c2.16-0.09,4.98,1.23,6.44,2.86c1.45,1.61-0.23,3.73-1.29,5.75c-3.13,5.95-4.11,12.54-3.93,19.25
			c0.02,0.6,1.2,1.71,1.76,1.65c2.09-0.21,3.95-0.54,5.11-3.06c3.84-8.37,5.43-17.02,4.74-26.18c-0.25-3.35-1.41-5.97-4.76-6.77
			c-2.48-0.59-5.19-0.88-7.7-0.56c-5.66,0.71-9.99,4.08-14.29,7.63C25.04,48.16,19.35,66.54,23.74,81.21
			c2.69,8.98,14.66,15.81,22.89,12.74c3.1-1.16,6.21-2.43,9.05-4.1C57.85,88.56,60.13,86.92,60.06,84.08z"/>
		<path class="st1" d="M69.28,78.03c-3.1,1.72-5.47,3.04-8.66,4.81c0.77-4.12,3.07-6.04,5.23-7.88c3.18-2.7,4.71-5.94,5.77-10.03
			c3.42-13.21,9.6-25.1,19.07-35.1c1.47-1.56,3.08-3.19,4.96-4.09c1.45-0.69,3.89-0.97,5.02-0.18c1.03,0.72,1.5,3.25,1.17,4.75
			c-1.82,8.38-5.75,15.87-10.65,22.82c-3.06,4.34-6.4,8.49-9.71,12.65c-4.39,5.52-5.27,8.19-4.98,16.69
			c1.05-1.02,1.98-1.6,2.47-2.44c1.91-3.3,3.64-6.72,5.53-10.03c0.73-1.28,1.53-2.64,2.63-3.57c2.46-2.08,4.08-1.47,4.9,1.61
			c0.17,0.64,0.22,1.31,0.41,1.95c1.83,6.09,4.13,6.96,8.92,3.05c6.82-5.56,13.46-11.33,20.25-16.93c1.79-1.47,3.76-2.75,5.77-3.9
			c1.6-0.92,3.66-1.81,5,0.03c1.55,2.14-0.78,3.11-2.01,4.3c-5.86,5.65-11.74,11.27-17.56,16.96c-0.77,0.75-1.22,1.83-1.2,3.5
			c1.9-1.34,3.86-2.59,5.68-4.03c2.34-1.86,4.47-4,6.88-5.76c1.65-1.21,3.85-3.04,5.41-2.72c2.81,0.59,1.14,3.62,1.46,5.6
			c0.13,0.82,0.05,1.68,0.29,2.46c0.86,2.9,2.92,3.63,5.2,1.6c2.35-2.1,4.38-4.55,6.63-6.77c2.37-2.34,4.69-4.76,7.29-6.81
			c1.17-0.92,2.98-1.03,4.5-1.51c0.39,1.48,1.11,2.97,1.09,4.45c-0.04,2.29-0.58,4.57-0.3,7.43c3.52-3.51,6.98-7.08,10.58-10.5
			c1.15-1.09,2.56-2.14,4.04-2.58c3.35-1,4.34-0.19,4.08,3.25c-0.28,3.79-0.87,7.55-1.39,11.86c2.4-2.18,4.37-4.15,6.52-5.89
			c4.19-3.37,6.92-2.76,9.61,1.97c0.08,0.14,0.14,0.3,0.22,0.45c3.76,6.74,3.72,6.69,10.12,2.65c1.41-0.89,3.13-1.29,4.71-1.91
			c-0.77,1.51-1.34,3.18-2.37,4.48c-1.55,1.94-3.31,3.75-5.18,5.38c-3.4,2.96-6.42,2.82-9.71-0.23c-0.49-0.45-0.91-0.97-1.32-1.5
			c-4.33-5.64-6.62-5.04-11.87,0.43c-2.29,2.39-4.2,5.17-6.54,7.51c-0.88,0.88-2.5,1.01-3.79,1.48c-0.25-1.34-0.9-2.76-0.66-4.01
			c0.79-4.06,1.95-8.05,2.85-12.09c0.16-0.7-0.23-1.52-0.36-2.29c-0.74,0.21-1.71,0.19-2.19,0.67c-4.22,4.23-8.34,8.55-12.5,12.83
			c-1.16,1.19-2.25,2.49-3.61,3.41c-0.66,0.45-2.06,0.46-2.71,0.04c-0.55-0.36-0.83-1.71-0.65-2.49c0.72-3.24,1.7-6.43,2.5-9.65
			c0.17-0.67-0.03-1.43-0.06-2.15c-0.73,0.25-1.65,0.29-2.17,0.77c-2.2,2.01-4.27,4.16-6.42,6.22c-2.52,2.42-5.31,4.11-8.98,2.76
			c-3.72-1.37-4.49-4.57-4.64-8.62c-2.39,1.97-4.38,3.68-6.44,5.29c-2.73,2.12-5.46,4.26-8.32,6.19c-1.7,1.15-3.64,1.71-5.51,0.09
			c-1.65-1.44-1.71-3.08-0.78-4.95c0.18-0.35-0.06-0.91-0.14-1.73c-1.4,1.07-2.56,1.99-3.74,2.86c-4.1,3.02-7.5,2.79-10.89-1.16
			c-1.46-1.71-2.29-2.15-3.66-0.12c-1.2,1.78-2.51,3.49-3.83,5.19c-1.02,1.31-1.89,2.92-3.23,3.75c-1.53,0.95-3.69,1.91-5.23,1.52
			c-1.2-0.31-2.37-2.59-2.66-4.16C68.95,83.61,69.28,81.1,69.28,78.03z M80.09,61.35c7.47-9.42,13.88-18.08,16.54-28.89
			C89.45,40.67,82.7,49.12,80.09,61.35z"/>
		<path class="st1" d="M247.99,78.34c2.99-2.79,6.02-5.53,8.95-8.37c2.62-2.55,5.12-5.24,7.7-7.83c0.58-0.58,1.23-1.34,1.95-1.49
			c1.21-0.24,2.72-0.44,3.7,0.08c0.58,0.31,0.77,2.15,0.5,3.12c-1.23,4.48-2.68,8.9-4.05,13.34c-0.33,1.06-0.65,2.12-0.41,3.54
			c7.98-7.79,15.95-15.58,23.93-23.37c0.48-0.46,0.9-1.21,1.46-1.32c1.68-0.34,3.55-0.93,5.09-0.5c1.99,0.55,2.43,2.59,2.03,4.56
			c-1.32,6.46-2.69,12.92-4.1,19.63c5.16-2.37,8.15-8.53,15.21-10.14c-0.86,1.71-1.15,3-1.95,3.73
			c-6.23,5.7-12.45,11.43-18.92,16.86c-2.67,2.24-4.08,1.68-5.01-1.59c-0.72-2.51-1.04-5.2-1.12-7.82
			c-0.07-2.01,1.29-3.78,3.37-3.32c1.74,0.38,2.12-0.26,2.25-1.45c0.31-2.88,0.46-5.79,0.67-8.68c-0.34-0.16-0.69-0.32-1.03-0.49
			c-1.24,0.97-2.52,1.9-3.71,2.92c-4.42,3.79-8.8,7.63-13.21,11.43c-6.35,5.48-11.5,11.86-15.68,19.18
			c-2.45,4.3-5.71,8.18-8.94,11.96c-1.32,1.55-3.4,2.68-5.35,3.39c-2.1,0.76-3.37-0.71-2.31-2.7c1.71-3.2,3.8-6.21,5.87-9.21
			c1.79-2.6,3.5-5.34,5.72-7.53c6.05-5.99,7.71-13.64,8.35-22.24c-1.36,1.19-2.73,2.36-4.06,3.58c-2.57,2.35-5.03,4.85-7.73,7.04
			c-1.08,0.87-2.64,1.35-4.05,1.57c-1.9,0.29-3.1-0.58-3.26-2.76c-0.16-2.12-0.63-4.22-1.13-7.37c-2.04,1.91-3.45,3.37-5.01,4.66
			c-7.1,5.91-13.57,12.72-22.55,15.96c-1.05,0.38-2.5,0.63-3.41,0.2c-1.67-0.78-3.74-1.81-4.43-3.3c-0.93-2.03,1.26-3.15,2.89-3.98
			c3.4-1.73,6.82-3.47,10.33-4.96c0.94-0.4,2.26,0.08,3.4,0.22c0.23,0.03,0.42,0.36,0.63,0.55c1.11-1.59,2.53-3.06,3.22-4.82
			c0.39-0.99-0.04-2.75-0.75-3.66c-2.65-3.41-5.54-6.62-8.39-9.87c-1.53-1.75-3.2-3.37-4.72-5.12c-7.1-8.18-4.6-14.98,1.81-21.52
			c5.38-5.48,12.06-9.38,19.58-11.56c1.7-0.49,3.95-1.82,4.81,0.45c0.67,1.76,0.78,4.98-0.31,5.95c-3.8,3.4-8.19,6.15-12.43,9.03
			c-0.47,0.32-1.46-0.11-2.21-0.19c0.22-0.86,0.22-1.88,0.71-2.54c0.78-1.04,1.89-1.82,3.13-2.96c-8.34,1.9-11.91,10.44-7.29,16.98
			c2.69,3.8,5.83,7.27,8.67,10.96c2.2,2.86,4.25,5.83,7.17,9.86c2.88-3.37,5.88-6.92,8.92-10.43c0.65-0.75,1.35-1.64,2.21-1.97
			c1.11-0.42,2.59-0.74,3.57-0.32c0.67,0.29,1.14,1.99,1,2.96c-0.35,2.45-1.12,4.85-1.66,7.28c-0.27,1.23-0.39,2.48-0.58,3.73
			C247.35,77.91,247.67,78.12,247.99,78.34z"/>
		<path class="st1" d="M60.06,84.08c0.07,2.84-2.21,4.48-4.39,5.76c-2.84,1.67-5.95,2.94-9.05,4.1c-8.23,3.08-20.2-3.76-22.89-12.74
			c-4.39-14.68,1.29-33.06,13.56-43.18c4.3-3.55,8.63-6.92,14.29-7.63c2.51-0.32,5.22-0.02,7.7,0.56c3.35,0.79,4.51,3.42,4.76,6.77
			c0.69,9.16-0.89,17.82-4.74,26.18c-1.15,2.52-3.02,2.85-5.11,3.06c-0.55,0.06-1.74-1.05-1.76-1.65c-0.18-6.71,0.8-13.3,3.93-19.25
			c1.06-2.01,2.74-4.14,1.29-5.75c-1.47-1.63-4.28-2.95-6.44-2.86c-3.92,0.16-7.71,1.55-10.59,4.67
			c-5.48,5.94-8.43,12.97-9.66,20.89c-1.07,6.83,0.38,13.13,3.29,19.21c1.84,3.85,7.82,7.26,12.09,6.28
			C50.93,87.45,55.32,85.64,60.06,84.08z"/>
		<path class="st0" d="M80.09,61.35c2.61-12.23,9.36-20.68,16.54-28.89C93.97,43.27,87.56,51.93,80.09,61.35z"/>
	</g>
</g>
</svg>
