<svg xmlns="http://www.w3.org/2000/svg" xml:space="preserve" id="Layer_1" x="0" y="0" style="enable-background:new 0 0 914 914" version="1.1" viewBox="0 0 914 914"><style>.st0{fill:#fefefe}.st1{fill:#393939}.st2{fill:#009cfe}</style><path d="M0 0h914v914H0V0zm650.9 908.49h22.04c51.6-.02 103.19-.21 154.79.03 15.28.07 30.4-.02 45.18-4.51 12.82-3.89 21.74-11.74 27.35-24.12 6.64-14.63 6.42-30.21 6.48-45.42.43-107.65.27-215.31.18-322.96-.01-15.95-.58-31.91-.97-47.86-.27-11.12-.38-22.26-1.07-33.36-.69-11.05-1.16-22.22-3.24-33.05-3.38-17.6-7.1-35.25-12.34-52.37-5.88-19.22-12.95-38.16-20.69-56.72-11.85-28.4-26.38-55.52-44.35-80.55-9.12-12.7-19.7-24.34-29.68-36.42-22.52-27.27-47.49-52.06-76.56-72.31-18.1-12.61-36.58-24.86-55.79-35.67-31.58-17.77-65.54-30-100.6-39.11-33.34-8.66-67.26-12.93-101.7-13.48-31.42-.51-62.54 2.28-93.32 8.47-12.52 2.52-24.92 5.74-37.21 9.24-11.05 3.15-22 6.75-32.75 10.81-27.22 10.28-53.12 23.28-77.75 38.78-48.76 30.69-89.94 69.49-123.68 116.13-19.29 26.66-35.39 55.16-48.03 85.58-9.21 22.17-17.24 44.73-22.86 68.1-1.89 7.85-4.21 15.6-5.83 23.51a318.23 318.23 0 0 0-4.07 24.97c-.98 7.94-1.89 15.97-1.88 23.95.07 30.5-2.44 61.11 3.56 91.39 1.59 8.04 2.46 16.23 3.99 24.29 1.77 9.28 3.52 18.59 5.98 27.7 3.71 13.73 7.44 27.51 12.23 40.89 5.63 15.73 11.96 31.25 18.83 46.49 5.38 11.93 11.33 23.73 18.29 34.8 10.83 17.22 22.48 33.94 34.25 50.54 14.29 20.15 32 37.29 49.65 54.41 5.92 5.74 12.49 10.84 18.9 16.06 6.08 4.95 12.36 9.65 18.5 14.53 5.34 4.24 10.57 8.6 15.92 12.83 1.68 1.33 3.54 2.46 5.39 3.57 7.05 4.23 14.13 8.41 21.21 12.6 4.18 2.47 8.27 5.11 12.59 7.28 3.52 1.77 7.48 2.67 10.99 4.46 4.25 2.17 8.02 5.34 12.36 7.23 7.41 3.22 15.11 5.77 22.69 8.62 22.66 8.49 45.6 16.3 69.42 20.55 22.57 4.03 45.37 7.03 68.19 9.36 13.38 1.37 26.99.68 40.49.7 58.33.06 116.62.03 174.92.04z" class="st0"/><path d="M650.9 908.48c-58.3 0-116.59.03-174.89-.03-13.51-.01-27.11.67-40.49-.7-22.82-2.33-45.62-5.33-68.19-9.36-23.82-4.26-46.76-12.06-69.42-20.55-7.58-2.84-15.28-5.4-22.69-8.62-4.35-1.89-8.12-5.06-12.36-7.23-3.51-1.79-7.47-2.69-10.99-4.46-4.33-2.17-8.42-4.81-12.59-7.28-7.08-4.18-14.15-8.37-21.21-12.6-1.85-1.11-3.7-2.24-5.39-3.57-5.35-4.23-10.58-8.59-15.92-12.83-6.14-4.88-12.43-9.57-18.5-14.53-6.41-5.22-12.97-10.32-18.9-16.06-17.65-17.12-35.36-34.26-49.65-54.41-11.77-16.6-23.42-33.32-34.25-50.54-6.96-11.06-12.91-22.86-18.29-34.8-6.87-15.23-13.19-30.76-18.83-46.49-4.79-13.38-8.53-27.15-12.23-40.89-2.46-9.11-4.21-18.42-5.98-27.7-1.54-8.06-2.4-16.25-3.99-24.29-6-30.29-3.49-60.89-3.56-91.39-.02-7.99.9-16.01 1.88-23.95 1.03-8.36 2.38-16.71 4.07-24.97 1.62-7.9 3.94-15.66 5.83-23.51 5.62-23.37 13.65-45.94 22.86-68.1 12.64-30.42 28.74-58.92 48.03-85.58C129 147.4 170.17 108.6 218.93 77.91c24.64-15.51 50.54-28.5 77.75-38.78 10.75-4.06 21.7-7.66 32.75-10.81 12.28-3.5 24.69-6.72 37.21-9.24 30.78-6.19 61.89-8.98 93.32-8.47 34.44.55 68.36 4.82 101.7 13.48 35.06 9.1 69.01 21.33 100.6 39.11 19.21 10.81 37.68 23.06 55.79 35.67 29.07 20.24 54.04 45.03 76.56 72.31 9.97 12.08 20.56 23.72 29.68 36.42 17.97 25.03 32.49 52.15 44.35 80.55 7.75 18.56 14.81 37.5 20.69 56.72 5.24 17.12 8.96 34.76 12.34 52.37 2.08 10.83 2.56 22 3.24 33.05.69 11.1.8 22.24 1.07 33.36.38 15.95.96 31.91.97 47.86.09 107.65.24 215.31-.18 322.96-.06 15.21.15 30.79-6.48 45.42-5.62 12.39-14.53 20.23-27.35 24.12-14.78 4.49-29.91 4.58-45.18 4.51-51.6-.24-103.19-.05-154.79-.03-7.37 0-14.72 0-22.07-.01zm137.02-157.61c-11.57-13.9-22.3-26.8-33.06-39.69-10.81-12.95-21.65-25.87-32.36-38.66-.93.53-1.14.57-1.21.7-20.67 35.38-60.8 55.28-101.81 47.61-12.8-2.39-23.52-8.26-32.77-17.11-2.79-2.67-5.2-5.74-8.42-9.35 5.21-2.12 9.61-3.53 13.66-5.63 16.87-8.73 32.79-18.97 47.57-30.95 20.18-16.36 37.56-35.29 52.46-56.55 16.22-23.15 28.94-48.07 37.43-75.05 5.8-18.42 9.71-37.17 11.85-56.51 2.16-19.5 2.41-38.91 1.42-58.32-.7-13.73-.69-27.63-5.06-41.07-4.6-14.14-7.59-28.81-12.49-42.83-4.42-12.64-9.73-25.11-16.04-36.92-4.64-8.69-11.66-16.08-17.4-24.21-10.04-14.23-20.81-27.86-33.86-39.42-12.13-10.75-24.16-21.77-37.31-31.16-11.68-8.34-24.74-14.8-37.39-21.73-14.17-7.76-29.12-13.7-44.83-17.59-8.63-2.13-17.24-4.48-25.98-6.06-12.2-2.21-24.48-5.1-36.77-5.38-20.91-.47-41.86.84-62.79 1.44-16.63.47-32.71 4.43-48.63 8.65-19.76 5.25-38.74 12.81-56.77 22.56-31.74 17.15-59.84 39.04-83.04 66.65-12.18 14.5-24.14 29.58-33.55 45.92-13.64 23.7-22.7 49.45-28.78 76.39-4.59 20.33-6.69 40.72-7.02 61.35-.24 15.11.72 30.24 1.45 45.34.2 4.19 1.34 8.38 2.34 12.49 2.05 8.43 5.12 16.69 6.3 25.23 1.86 13.51 6.61 26.04 11.76 38.37 8.67 20.78 20.32 39.97 34.06 57.82 15.67 20.37 33.45 38.71 53.47 54.85 18.9 15.23 39.88 27.04 61.98 36.83 18.83 8.34 38.47 14.47 58.7 18.19 13.54 2.49 27.32 3.8 41.02 5.31 6.47.71 13.05.43 19.52 1.09 1.88.19 4.38 1.66 5.25 3.27 10.48 19.42 23.65 36.5 40.89 50.51 14.13 11.48 29.21 21.22 45.73 28.9 18.08 8.41 36.91 14.56 56.67 16.45 34.98 3.34 69.47 0 102.77-11.79 26.83-9.5 51.02-23.72 72.42-42.54 6.3-5.56 12.3-11.48 18.62-17.4z" class="st1"/><path d="M787.92 750.87c-6.31 5.91-12.31 11.84-18.64 17.4-21.4 18.81-45.59 33.04-72.42 42.54-33.3 11.79-67.79 15.13-102.77 11.79-19.76-1.89-38.59-8.04-56.67-16.45-16.52-7.68-31.6-17.42-45.73-28.9-17.24-14-30.41-31.09-40.89-50.51-.87-1.61-3.37-3.07-5.25-3.27-6.48-.66-13.05-.38-19.52-1.09-13.71-1.51-27.48-2.82-41.02-5.31-20.23-3.72-39.87-9.85-58.7-18.19-22.11-9.79-43.09-21.6-61.98-36.83-20.02-16.14-37.8-34.48-53.47-54.85-13.74-17.85-25.39-37.04-34.06-57.82-5.15-12.33-9.9-24.86-11.76-38.37-1.17-8.54-4.24-16.8-6.3-25.23-1-4.12-2.14-8.3-2.34-12.49-.73-15.11-1.69-30.24-1.45-45.34.33-20.63 2.43-41.02 7.02-61.35 6.08-26.93 15.14-52.69 28.78-76.39 9.41-16.34 21.37-31.42 33.55-45.92 23.2-27.61 51.3-49.5 83.04-66.65 18.03-9.74 37.01-17.31 56.77-22.56 15.92-4.23 32-8.18 48.63-8.65 20.93-.59 41.88-1.91 62.79-1.44 12.3.28 24.58 3.16 36.77 5.38 8.74 1.59 17.35 3.93 25.98 6.06 15.71 3.88 30.66 9.83 44.83 17.59 12.65 6.93 25.71 13.39 37.39 21.73 13.15 9.39 25.18 20.42 37.31 31.16 13.06 11.56 23.82 25.2 33.86 39.42 5.74 8.13 12.75 15.52 17.4 24.21 6.31 11.8 11.62 24.27 16.04 36.92 4.9 14.02 7.89 28.69 12.49 42.83 4.37 13.44 4.36 27.35 5.06 41.07.99 19.41.74 38.82-1.42 58.32-2.14 19.34-6.05 38.08-11.85 56.51-8.49 26.97-21.21 51.9-37.43 75.05-14.89 21.26-32.28 40.19-52.46 56.55-14.78 11.98-30.7 22.21-47.57 30.95-4.05 2.1-8.45 3.51-13.66 5.63 3.23 3.61 5.64 6.68 8.42 9.35 9.25 8.86 19.97 14.72 32.77 17.11 41.02 7.67 81.14-12.22 101.81-47.61.07-.12.28-.17 1.21-.7 10.71 12.8 21.55 25.72 32.36 38.66 10.77 12.89 21.5 25.79 33.08 39.69zM611.67 394.24c-.15-.74-.31-1.47-.46-2.21.43-1.51 1.51-3.2 1.15-4.49-.63-2.24-2.14-4.24-3.28-6.34-2.05-5.56-4.19-11.1-6.15-16.7-6.13-17.56-15.93-33.08-27.26-47.6-5.38-6.9-11.68-13.14-17.98-19.24-12.46-12.06-26.2-22.47-42.11-29.64-14.29-6.44-29.25-10.75-44.85-12.57-20.08-2.34-40.04-1.37-59.68 3.46-22.98 5.64-43.93 15.38-61.77 31.36-17.47 15.64-33.2 32.7-43.94 53.72-12.27 24.03-20.78 49.23-20.51 76.6.14 14.99 1 29.97 1.61 44.96.16 3.96.02 8.07 1.05 11.83 2.19 7.95 4.91 15.78 7.7 23.55 8.57 23.88 21.49 45.12 39.77 62.8 8.98 8.68 18.65 16.64 28.01 24.93.19 1.16-.04 2.81.65 3.41 2.31 2.02 4.92 3.7 7.46 5.45 11.98 8.26 25.03 14.22 38.94 18.51 18.35 5.67 37.14 6.44 56.13 6 18.68-.43 36.47-4.95 53.37-12.42 30.13-13.32 53.09-35.1 71.56-62.11 20.03-29.29 28.25-62.07 29.79-96.93.28-6.26-.34-12.58-.78-18.86-.45-6.43-2.02-12.9-1.58-19.25.43-6.31-5.3-10.78-3.97-17.05.02-.19-1.88-.78-2.87-1.17z" class="st2"/><path d="M362.97 588.65c-9.36-8.29-19.03-16.25-28.01-24.93-18.28-17.68-31.2-38.91-39.77-62.8-2.79-7.77-5.5-15.6-7.7-23.55-1.03-3.75-.89-7.87-1.05-11.83-.61-14.98-1.47-29.97-1.61-44.96-.26-27.38 8.25-52.58 20.51-76.6 10.74-21.03 26.47-38.08 43.94-53.72 17.85-15.98 38.79-25.71 61.77-31.36 19.64-4.82 39.6-5.8 59.68-3.46 15.6 1.82 30.56 6.13 44.85 12.57 15.9 7.17 29.65 17.58 42.11 29.64 6.3 6.1 12.6 12.35 17.98 19.24 11.33 14.52 21.12 30.04 27.26 47.6 1.96 5.6 4.09 11.13 6.15 16.7.71 3.61 1.43 7.22 2.14 10.83.15.74.31 1.47.46 2.21 1.11 7.09 2.7 14.15 3.26 21.29 1.47 18.73.45 37.45-2.75 55.92-2.21 12.78-6.19 25.09-11.38 37.19-7.92 18.46-17.89 35.32-31.18 50.31-12.11 13.64-25.76 25.37-41.68 34.38-.62.42-1.25.84-1.87 1.26-1.31.74-2.62 1.49-3.94 2.23-.69.27-1.39.54-2.08.82-.64.4-1.28.79-1.92 1.19-.95.41-1.9.83-2.86 1.24-2.51 1.02-5.03 2.04-7.54 3.06l-1.62.51c-1.02.45-2.03.9-3.05 1.35-1.38.51-2.77 1.02-4.15 1.52-.74.17-1.48.34-2.23.5-1.51.47-3.01.94-4.52 1.42l-3.15.63c-1.95.47-3.9.93-5.86 1.4-1.03.18-2.06.35-3.1.53-3.05.51-6.1 1.02-9.15 1.52l-4.05.39-.33-.16-.3.21-2.22.12-11.21.27c-.13.13-.24.27-.33.44h.07-2.06.08-2.08.08l-1.59-.45c-3.65-.09-7.3-.17-10.95-.26-2.3-.18-4.6-.37-6.9-.55-2.91-.49-5.82-.98-8.74-1.47-1.42-.18-2.84-.35-4.26-.53l-6.16-1.53c-.69-.17-1.38-.34-2.07-.52-1.65-.49-3.3-.99-4.94-1.48-.68-.17-1.37-.35-2.05-.52-11.96-5.69-23.93-11.39-35.89-17.08-.7-.26-1.37-.5-2.04-.73z" class="st1"/><path d="M507.72 603.11c2.51-1.02 5.03-2.04 7.54-3.05.95-.41 1.9-.83 2.86-1.24.64-.4 1.28-.79 1.92-1.18.69-.27 1.39-.54 2.09-.82 1.31-.74 2.62-1.49 3.93-2.23.62-.42 1.25-.84 1.87-1.26 15.92-9.01 29.57-20.73 41.68-34.38 13.3-14.99 23.26-31.85 31.18-50.31 5.2-12.11 9.17-24.41 11.38-37.19 3.19-18.47 4.21-37.19 2.75-55.92-.56-7.14-2.14-14.2-3.26-21.29 1 .4 2.89.98 2.85 1.16-1.32 6.27 4.4 10.74 3.97 17.05-.43 6.35 1.13 12.82 1.58 19.25.44 6.28 1.05 12.6.78 18.86-1.54 34.86-9.76 67.64-29.79 96.93-18.47 27.01-41.43 48.79-71.56 62.11-16.9 7.47-34.69 11.99-53.37 12.42-18.98.44-37.77-.33-56.13-6-13.91-4.3-26.95-10.25-38.94-18.51-2.54-1.75-5.15-3.43-7.46-5.45-.68-.6-.46-2.24-.65-3.41l2.01.72c4.72 3.06 9.26 6.47 14.21 9.11 6.82 3.65 13.54 7.83 21.68 7.97.68.17 1.37.35 2.05.52 1.65.49 3.3.99 4.95 1.49.69.17 1.38.34 2.06.52l6.16 1.53c1.42.18 2.84.35 4.25.53l8.74 1.47c2.3.18 4.6.37 6.9.55 3.65.09 7.3.17 10.96.26l1.59.45h-.08 2.08-.08 2.06-.07c.09-.16.2-.31.33-.43 3.74-.09 7.48-.18 11.21-.28l2.21-.12.34.16.31-.21 4.05-.39c3.05-.51 6.1-1.02 9.15-1.52 1.03-.18 2.06-.35 3.1-.53 1.95-.47 3.9-.93 5.86-1.4l3.15-.63c1.51-.47 3.01-.94 4.52-1.42.74-.17 1.48-.34 2.22-.5 1.38-.51 2.77-1.02 4.15-1.52 1.02-.45 2.03-.9 3.04-1.34.59-.18 1.13-.36 1.67-.53zM611.21 392.03c-.71-3.61-1.43-7.22-2.14-10.83 1.14 2.1 2.66 4.1 3.28 6.34.37 1.29-.71 2.98-1.14 4.49z" class="st0"/><path d="M400.87 606.45c-8.15-.14-14.87-4.33-21.68-7.97-4.95-2.65-9.49-6.05-14.21-9.11 11.96 5.69 23.93 11.38 35.89 17.08zM446.94 613.31c-3.65-.09-7.31-.17-10.96-.26 3.66.09 7.31.17 10.96.26zM464 613.05c-3.74.09-7.48.18-11.21.28 3.73-.09 7.47-.19 11.21-.28zM429.08 612.5zM480.05 610.97c-3.05.51-6.1 1.02-9.15 1.52 3.06-.5 6.11-1.01 9.15-1.52zM416.09 610.5zM407.87 608.45c-1.65-.5-3.3-.99-4.95-1.49 1.65.5 3.3 1 4.95 1.49zM489.01 609.05c-1.95.47-3.91.93-5.86 1.4 1.95-.47 3.91-.94 5.86-1.4zM496.68 607zM503.05 604.97c-1.38.51-2.77 1.02-4.15 1.52 1.39-.5 2.77-1.01 4.15-1.52zM518.12 598.82c-.95.41-1.91.83-2.86 1.24.96-.42 1.91-.83 2.86-1.24zM527.93 593.33c-.63.42-1.25.84-1.87 1.26.63-.42 1.25-.84 1.87-1.26zM522.13 596.82c-.7.27-1.39.55-2.09.82.7-.28 1.39-.55 2.09-.82zM507.72 603.11l-1.63.51c.55-.17 1.09-.34 1.63-.51zM466.85 612.88l-.31.21-.34-.16.31-.21.34.16zM448.46 613.76h.08-.08zM450.46 613.76h.08-.08zM452.45 613.76h.07-.07z" class="st2"/><circle cx="454.04" cy="438.33" r="185.12" class="st1"/></svg>